<?xml version="1.0" standalone="no"?>
<!DOCTYPE svg PUBLIC "-//W3C//DTD SVG 20010904//EN"
 "http://www.w3.org/TR/2001/REC-SVG-20010904/DTD/svg10.dtd">
<svg version="1.0" xmlns="http://www.w3.org/2000/svg"
 width="512.000000pt" height="512.000000pt" viewBox="0 0 512.000000 512.000000"
 preserveAspectRatio="xMidYMid meet">
<metadata>
Created by potrace 1.11, written by Peter Selinger 2001-2013
</metadata>
<g transform="translate(0.000000,512.000000) scale(0.100000,-0.100000)"
fill="#000000" stroke="none">
<path d="M705 4901 c-170 -42 -302 -136 -396 -281 -39 -60 -72 -135 -85 -190
-4 -19 -9 -42 -12 -50 -5 -18 -9 -1959 -4 -1980 3 -13 45 -15 322 -15 175 0
321 2 323 5 3 3 8 30 11 60 55 479 338 934 758 1219 164 111 446 223 638 255
173 28 502 29 600 1 8 -2 26 -6 40 -9 243 -41 550 -187 755 -359 61 -51 175
-164 230 -227 57 -67 174 -249 219 -343 43 -89 119 -301 131 -364 3 -15 7 -39
10 -53 3 -14 7 -41 10 -60 3 -19 7 -46 10 -60 13 -55 12 -328 -1 -420 -19
-140 -25 -171 -35 -197 -5 -13 -7 -23 -4 -23 2 0 -14 -53 -36 -117 -164 -477
-506 -844 -974 -1043 -116 -50 -312 -101 -445 -117 -122 -14 -402 -7 -494 12
-381 79 -673 230 -917 474 -146 147 -264 313 -343 483 -38 81 -91 221 -101
268 -2 8 -11 42 -19 75 -9 33 -22 102 -28 152 l-12 93 -325 -3 -326 -2 0 -639
c0 -468 3 -658 12 -713 43 -253 241 -458 498 -517 63 -14 255 -15 1875 -13
l1805 2 72 26 c176 65 306 178 382 335 68 140 64 11 65 1964 1 971 -2 1792 -6
1825 -28 244 -198 446 -448 537 l-65 23 -1810 2 c-1694 2 -1814 1 -1880 -16z
m3616 -301 c115 -39 201 -115 254 -225 39 -80 45 -105 46 -192 0 -76 -14 -132
-52 -203 -53 -98 -130 -166 -231 -204 -282 -106 -579 90 -592 391 -9 216 139
403 354 446 80 17 143 13 221 -13z"/>
<path d="M2528 3626 c-1 -2 -43 -7 -92 -10 -49 -4 -92 -9 -95 -11 -3 -1 -24
-6 -46 -9 -158 -25 -369 -111 -515 -209 -73 -49 -205 -164 -252 -219 -23 -28
-50 -58 -59 -67 -31 -31 -118 -167 -158 -247 -39 -77 -95 -225 -105 -275 -2
-13 -9 -44 -14 -69 -19 -80 -22 -120 -9 -121 7 -1 140 -2 295 -3 247 -1 285 1
292 15 8 14 136 362 182 494 27 76 44 100 88 120 87 40 174 3 206 -87 8 -24
74 -232 146 -463 71 -231 133 -426 137 -433 4 -7 31 49 65 135 32 81 64 162
72 178 7 17 54 134 105 260 64 160 100 237 118 253 58 50 141 48 202 -5 9 -7
63 -116 119 -241 l102 -227 122 0 c110 -1 125 -3 160 -24 70 -44 91 -133 47
-205 -36 -58 -65 -65 -272 -67 -242 -3 -247 0 -317 151 -21 47 -42 94 -46 105
-10 26 -9 28 -96 -190 -39 -99 -80 -199 -91 -222 -10 -24 -19 -49 -19 -56 0
-7 -4 -17 -8 -23 -5 -5 -23 -47 -41 -94 -17 -47 -36 -94 -41 -105 -5 -11 -21
-49 -35 -85 -38 -92 -51 -109 -101 -132 -81 -35 -167 1 -198 84 -13 37 -55
169 -181 578 -77 249 -105 332 -105 309 0 -20 -93 -256 -107 -272 -44 -48 -52
-49 -445 -48 l-370 0 7 -47 c3 -26 10 -65 15 -87 5 -22 11 -52 14 -66 17 -98
121 -336 189 -432 212 -303 488 -497 824 -581 126 -31 184 -38 313 -41 152 -3
267 13 435 58 50 14 130 46 197 79 422 206 709 598 775 1059 10 65 9 338 0
394 -38 230 -102 396 -223 577 -193 290 -522 518 -844 584 -14 3 -44 9 -68 15
-23 5 -88 12 -145 15 -56 3 -107 7 -114 9 -6 2 -13 2 -15 1z"/>
</g>
</svg>
