<svg version="1.1" id="Layer_1" xmlns="http://www.w3.org/2000/svg" xmlns:xlink="http://www.w3.org/1999/xlink" x="0px" y="0px"
	 viewBox="0 0 512 512" enable-background="new 0 0 512 512" xml:space="preserve">
<g>
	<path fill-rule="evenodd" clip-rule="evenodd" fill="#434343" d="M426.4,20.2H85.6c-35.9,0-65,29.1-65,65v188.3h64.9
		c7.6-87.7,81.2-156.5,170.9-156.5c94.7,0,171.5,76.8,171.5,171.5S351.1,460,256.4,460c-89.7,0-163.3-68.8-170.9-156.5H20.6v123.4
		c0,35.9,29.1,65,65,65h340.8c35.9,0,65-29.1,65-65V85.2C491.4,49.3,462.3,20.2,426.4,20.2z M418.3,137.6
		c-24.4,0-44.1-19.8-44.1-44.1c0-24.4,19.8-44.1,44.1-44.1c24.4,0,44.1,19.7,44.1,44.1C462.4,117.9,442.6,137.6,418.3,137.6z"/>
	<path fill-rule="evenodd" clip-rule="evenodd" fill="#434343" d="M395,289.3c0,76.9-62.4,139.3-139.3,139.3
		c-72.2,0-131.5-54.9-138.6-125.2h70.1c6.3,0,12-4,14.1-9.9l8.3-22.9l27.7,88.8c1.9,6.1,7.4,10.3,13.7,10.5c0.2,0,0.4,0,0.6,0
		c6.1,0,11.6-3.7,13.9-9.4l34-84.9l8.5,18.9c2.4,5.4,7.8,8.9,13.7,8.9h30.2c8.3,0,15-6.7,15-15c0-8.3-6.7-15-15-15h-20.5l-19-42.3
		c-2.4-5.4-7.8-8.8-13.7-8.8c-0.1,0-0.2,0-0.3,0c-6,0.1-11.4,3.8-13.6,9.4l-31.5,78.5l-28.4-91.1c-1.9-6.2-7.5-10.4-14-10.5
		c-6.5-0.2-12.3,3.8-14.4,9.9l-19.8,54.9h-59.4c7.9-69.5,66.8-123.5,138.4-123.5C332.6,150,395,212.3,395,289.3z"/>
</g>
</svg>
